<?xml version="1.0" encoding="UTF-8" standalone="no"?>
<!-- Created with Inkscape (http://www.inkscape.org/) -->

<svg
   width="12.7mm"
   height="12.7mm"
   viewBox="0 0 12.7 12.7"
   version="1.1"
   id="svg1"
   xml:space="preserve"
   inkscape:version="1.3 (1:1.3+202307231459+0e150ed6c4)"
   sodipodi:docname="icon-incscape.svg"
   inkscape:export-filename="../../../jitsi-chat-exporter-web-extension/assets/icon/icon-repo.png"
   inkscape:export-xdpi="384"
   inkscape:export-ydpi="384"
   xmlns:inkscape="http://www.inkscape.org/namespaces/inkscape"
   xmlns:sodipodi="http://sodipodi.sourceforge.net/DTD/sodipodi-0.dtd"
   xmlns="http://www.w3.org/2000/svg"
   xmlns:svg="http://www.w3.org/2000/svg"><sodipodi:namedview
     id="namedview1"
     pagecolor="#505050"
     bordercolor="#ffffff"
     borderopacity="1"
     inkscape:showpageshadow="0"
     inkscape:pageopacity="0"
     inkscape:pagecheckerboard="1"
     inkscape:deskcolor="#d1d1d1"
     inkscape:document-units="mm"
     inkscape:zoom="5.7798541"
     inkscape:cx="12.803091"
     inkscape:cy="27.768867"
     inkscape:window-width="1920"
     inkscape:window-height="1011"
     inkscape:window-x="0"
     inkscape:window-y="0"
     inkscape:window-maximized="1"
     inkscape:current-layer="layer1"
     showgrid="false" /><defs
     id="defs1" /><g
     inkscape:label="Layer 1"
     inkscape:groupmode="layer"
     id="layer1"
     transform="translate(-93.281704,-83.301022)"><g
       id="g7"
       transform="matrix(1.043924,0,0,1.043924,-4.0973099,-3.6589179)"
       style="stroke-width:0.957924"
       inkscape:export-filename="./icon-128px.png"
       inkscape:export-xdpi="256.00003"
       inkscape:export-ydpi="256.00003"><rect
         style="fill:#0074e0;fill-opacity:1;stroke:none;stroke-width:25.3451;paint-order:markers stroke fill;-webkit-print-color-adjust:exact"
         id="rect4"
         width="12.165636"
         height="12.165636"
         x="93.281708"
         y="83.301025"
         rx="0"
         ry="0" /><path
         style="fill:#f9f9f9;fill-opacity:0.5;stroke:#e6e6e6;stroke-width:0.253451;stroke-dasharray:none;stroke-opacity:1"
         d="m 96.049851,91.872261 c -0.315432,-0.140377 -0.57515,-0.396122 -0.813893,-0.643134 -0.468627,-0.541749 -0.828807,-1.258379 -0.7188,-1.99366 0.0925,-0.949486 0.757976,-1.714608 1.48822,-2.269464 0.476831,-0.364625 1.004283,-0.65345 1.521777,-0.954734 -0.142098,-0.263238 -0.311291,-0.514817 -0.429527,-0.78862 0.0243,-0.36003 0.438229,-0.150969 0.649304,-0.104795 0.614349,0.166583 1.232318,0.321175 1.842065,0.50398 0.273449,0.18467 -0.03659,0.570441 -0.0432,0.828633 -0.152431,0.561504 -0.297019,1.125393 -0.462306,1.683244 -0.250537,0.263856 -0.431818,-0.175546 -0.53665,-0.358731 -0.06945,-0.118766 -0.138961,-0.2375 -0.208369,-0.356292 -0.764847,0.466622 -1.60156,0.856564 -2.198227,1.546492 -0.360219,0.400111 -0.714665,0.924731 -0.584715,1.490377 0.05444,0.482815 0.323079,0.897047 0.585638,1.290291 0.02548,0.06009 -0.02991,0.124727 -0.09125,0.126398 z"
         id="path4" /><path
         d="m 104.00222,88.957955 c -0.0704,-0.150698 -0.18383,-0.277168 -0.32603,-0.363428 -0.16905,-0.107172 -0.38023,-0.129898 -0.52743,-0.129898 -0.0496,8e-6 -0.0991,0.0026 -0.14843,0.0077 h -0.004 c 0.003,-0.02028 0.008,-0.0465 0.0123,-0.06783 0.007,-0.03741 0.0157,-0.07989 0.0204,-0.12412 0.0196,-0.189676 -0.0479,-0.444909 -0.17219,-0.649969 -0.0197,-0.03269 -0.0191,-0.04388 -0.0191,-0.04388 0.006,-0.0093 0.0135,-0.01777 0.0217,-0.02535 l 0.0113,-0.01189 c 0.29386,-0.31467 0.38266,-0.660634 0.26362,-1.030371 -0.22568,-0.70119 -0.28618,-0.70119 -0.3304,-0.70119 -0.0103,-9.8e-5 -0.0196,0.0019 -0.0287,0.0059 -0.009,0.0039 -0.0171,0.0098 -0.0238,0.01707 -0.007,0.0089 -0.0127,0.01924 -0.0158,0.03036 -0.003,0.01112 -0.004,0.02276 -0.002,0.03415 0.0229,0.232506 -0.0295,0.565358 -0.0645,0.6921 -0.0428,0.159433 -0.19229,0.397185 -0.6643,0.623223 -0.0331,0.01412 -0.067,0.02655 -0.10138,0.03724 -0.154,0.05157 -0.41133,0.137755 -0.55433,0.3346 -0.10786,0.126393 -0.13393,0.25296 -0.1806,0.481446 -0.0416,0.203137 -0.0752,0.450503 -0.009,0.745755 0.006,0.0292 0.0129,0.05367 0.0187,0.07553 0.004,0.01557 0.007,0.02904 0.0103,0.04073 l 0.005,-0.0012 -0.006,0.0015 c 0.004,0.01748 0.002,0.02169 -0.005,0.02606 -0.0227,0.009 -0.0461,0.01617 -0.0699,0.02149 -0.0699,0.0112 -0.13987,0.0236 -0.20665,0.03671 -0.21257,0.03655 -0.8552,0.147361 -1.151158,0.618492 -0.182691,0.290551 -0.208562,0.670068 -0.07722,1.129318 0.136181,0.454524 0.406448,0.766928 0.591398,0.830572 l 0.003,10e-4 c 0.0133,0.006 0.026,0.01101 0.0385,0.01522 0,0.01276 -10e-4,0.02833 -0.003,0.04581 -10e-4,0.0076 -0.002,0.01606 -0.004,0.02516 -0.0202,0.148235 -0.0902,0.308028 -0.16153,0.312235 -0.0376,-0.0073 -0.186527,-0.09178 -0.291933,-0.161023 -0.03376,-0.02202 -0.06587,-0.0431 -0.09611,-0.06328 -0.294219,-0.19473 -0.456448,-0.301888 -0.704344,-0.329531 -0.0083,-9.01e-4 -0.01703,-0.0013 -0.0255,-0.0014 -0.262225,0 -0.734231,0.441604 -0.744194,1.321616 -0.0052,0.440895 0.04109,0.843848 0.137576,1.197853 0.06886,0.25384 0.142304,0.398419 0.163633,0.437043 l 0.08496,0.159083 0.03882,-0.174817 c 0.204536,-0.92653 0.456975,-1.149777 0.877062,-1.416892 0.307847,0.288448 0.7122,0.440539 1.17267,0.440539 0.38809,0 0.79418,-0.112757 1.14312,-0.317648 0.34282,-0.201039 0.6075,-0.472006 0.7692,-0.785092 0.0269,0.01748 0.0595,0.04021 0.0809,0.05523 0.0769,0.05384 0.0931,0.0652 0.12062,0.0652 h 0.002 c 0.03,-0.0012 0.31361,-0.09631 0.60398,-0.451029 0.16871,-0.206092 0.30785,-0.460969 0.41345,-0.757994 0.13075,-0.367116 0.20978,-0.800663 0.23669,-1.288238 0.0297,-0.4094 -0.0119,-0.735433 -0.1236,-0.969006 z m -3.89493,2.169473 4.3e-4,8.3e-5 z"
         fill="#ffffff"
         id="path7"
         style="fill:#e6e6e6;fill-opacity:0.5;stroke-width:0.253451"
         sodipodi:nodetypes="ccsccccccccccccscccccccsccccccccscccccccccccccccscccscsccccccc" /><path
         d="m 104.00222,88.957955 c -0.0704,-0.150698 -0.18383,-0.277168 -0.32603,-0.363428 -0.16905,-0.107172 -0.38023,-0.129898 -0.52743,-0.129898 -0.0496,8e-6 -0.0991,0.0026 -0.14843,0.0077 h -0.004 c 0.003,-0.02028 0.008,-0.0465 0.0123,-0.06783 0.007,-0.03741 0.0157,-0.07989 0.0204,-0.12412 0.0196,-0.189676 -0.0479,-0.444909 -0.17219,-0.649969 -0.0197,-0.03269 -0.0191,-0.04388 -0.0191,-0.04388 0.006,-0.0093 0.0135,-0.01777 0.0217,-0.02535 l 0.0113,-0.01189 c 0.29386,-0.31467 0.38266,-0.660634 0.26362,-1.030371 -0.22568,-0.70119 -0.28618,-0.70119 -0.3304,-0.70119 -0.0103,-9.8e-5 -0.0196,0.0019 -0.0287,0.0059 -0.009,0.0039 -0.0171,0.0098 -0.0238,0.01707 -0.007,0.0089 -0.0127,0.01924 -0.0158,0.03036 -0.003,0.01112 -0.004,0.02276 -0.002,0.03415 0.0229,0.232506 -0.0295,0.565358 -0.0645,0.6921 -0.0428,0.159433 -0.19229,0.397185 -0.6643,0.623223 -0.0331,0.01412 -0.067,0.02655 -0.10138,0.03724 -0.154,0.05157 -0.41133,0.137755 -0.55433,0.3346 -0.10786,0.126393 -0.13393,0.25296 -0.1806,0.481446 -0.0416,0.203137 -0.0752,0.450503 -0.009,0.745755 0.006,0.0292 0.0129,0.05367 0.0187,0.07553 0.004,0.01557 0.007,0.02904 0.0103,0.04073 l 0.005,-0.0012 -0.006,0.0015 c 0.004,0.01748 0.002,0.02169 -0.005,0.02606 -0.0227,0.009 -0.0461,0.01617 -0.0699,0.02149 -0.0699,0.0112 -0.13987,0.0236 -0.20665,0.03671 -0.21257,0.03655 -0.8552,0.147361 -1.151158,0.618492 -0.182691,0.290551 -0.208562,0.670068 -0.07722,1.129318 0.136181,0.454524 0.406448,0.766928 0.591398,0.830572 l 0.003,10e-4 c 0.0133,0.006 0.026,0.01101 0.0385,0.01522 0,0.01276 -10e-4,0.02833 -0.003,0.04581 -10e-4,0.0076 -0.002,0.01606 -0.004,0.02516 -0.0202,0.148235 -0.0902,0.308028 -0.16153,0.312235 -0.0376,-0.0073 -0.186527,-0.09178 -0.291933,-0.161023 -0.03376,-0.02202 -0.06587,-0.0431 -0.09611,-0.06328 -0.294219,-0.19473 -0.456448,-0.301888 -0.704344,-0.329531 -0.0083,-9.01e-4 -0.01703,-0.0013 -0.0255,-0.0014 -0.262225,0 -0.734231,0.441604 -0.744194,1.321616 -0.0052,0.440895 0.04109,0.843848 0.137576,1.197853 0.06886,0.25384 0.142304,0.398419 0.163633,0.437043 l 0.08496,0.159083 0.03882,-0.174817 c 0.204536,-0.92653 0.456975,-1.149777 0.877062,-1.416892 0.307847,0.288448 0.7122,0.440539 1.17267,0.440539 0.38809,0 0.79418,-0.112757 1.14312,-0.317648 0.34282,-0.201039 0.6075,-0.472006 0.7692,-0.785092 0.0269,0.01748 0.0595,0.04021 0.0809,0.05523 0.0769,0.05384 0.0931,0.0652 0.12062,0.0652 h 0.002 c 0.03,-0.0012 0.31361,-0.09631 0.60398,-0.451029 0.16871,-0.206092 0.30785,-0.460969 0.41345,-0.757994 0.13075,-0.367116 0.20978,-0.800663 0.23669,-1.288238 0.0297,-0.4094 -0.0119,-0.735433 -0.1236,-0.969006 z m -3.89493,2.169473 c -0.185999,-0.276725 -0.326909,-0.760257 -0.234604,-1.149061 v -0.0018 c 0.0446,-0.211528 0.192304,-0.336004 0.253314,-0.379708 l 0.009,-0.0065 c 0.0905,-0.079 0.27585,-0.162389 0.522,-0.235292 0.035,-0.0091 0.0542,-0.01311 0.055,-0.01311 0.0453,-0.0095 0.0948,-0.02081 0.14282,-0.03182 0.091,-0.02322 0.18319,-0.04124 0.27622,-0.054 0.023,-0.0025 0.0465,-0.0068 0.0689,-0.0112 0.0302,-0.0066 0.061,-0.01062 0.092,-0.01188 0.0247,-0.0013 0.0491,0.0052 0.0699,0.01852 0.0913,0.108387 0.31467,0.322373 0.46116,0.334965 h 0.004 0.005 c 0.16679,-0.009 0.42814,-0.171675 0.77706,-0.484078 0.0593,-0.05245 0.11434,-0.09825 0.16834,-0.13827 l 0.006,-0.0051 c 0.0952,-0.07223 0.20005,-0.130786 0.3115,-0.173944 -0.0365,0.119587 -0.0656,0.323931 0.0525,0.61186 0.0613,0.14895 0.17919,0.484598 0.27692,0.813254 0.16818,0.566052 0.14474,0.665698 0.14144,0.674957 -0.005,0.01923 -0.0123,0.03764 -0.0226,0.05455 -0.0131,-0.0026 -0.0258,-0.007 -0.0376,-0.01328 -0.0848,-0.03917 -0.1799,-0.109098 -0.29108,-0.191262 -0.20628,-0.151217 -0.46275,-0.339309 -0.83808,-0.485992 -0.27567,-0.107512 -0.54981,-0.162225 -0.81429,-0.162225 -0.1096,-1.91e-4 -0.21896,0.01022 -0.32655,0.03112 -0.59124,0.116609 -0.90294,0.37725 -1.07024,0.517459 l -10e-4,10e-4 c -0.0109,0.0089 -0.019,0.02101 -0.0228,0.03464 -0.004,0.01361 -0.003,0.02808 0.001,0.04141 0.005,0.01314 0.0136,0.02445 0.0251,0.03236 0.0116,0.0079 0.0252,0.01208 0.0392,0.01188 0.0152,0 0.03,-0.0042 0.0792,-0.01836 0.17715,-0.0528 0.35843,-0.09058 0.54193,-0.112948 0.0658,-0.0076 0.13188,-0.01158 0.19807,-0.01172 0.28619,0 0.54945,0.08741 0.82812,0.276757 0.0638,0.05332 0.10282,0.08861 0.12638,0.111882 l -0.0241,0.0063 -0.16906,0.04772 c -0.41853,0.118347 -1.05118,0.29718 -1.35064,0.29718 -0.0229,1.91e-4 -0.046,-0.0011 -0.0687,-0.004 -0.0776,-0.01137 -0.17236,-0.09249 -0.2603,-0.222181 z m -1.234385,2.123153 c -0.117795,0.153565 -0.204546,0.328628 -0.255401,0.515354 -0.05627,-0.269737 -0.122379,-0.713417 -0.08476,-1.058845 0.07836,-0.715711 0.432848,-0.955374 0.485468,-0.967967 h 0.0031 c 0.0031,0 0.0062,0 0.01342,0.0075 0.02829,0.03075 0.08951,0.160668 0.04491,0.697875 -0.01053,0.110654 0.01611,0.204344 0.07939,0.278478 0.04284,0.04903 0.09684,0.08713 0.157336,0.111172 -0.170643,0.112726 -0.320906,0.253591 -0.44439,0.416607 z m 3.299145,-0.721643 c -0.33333,0.347476 -0.78353,0.559196 -1.26374,0.594378 -0.057,0.0042 -0.11381,0.0063 -0.16853,0.0063 -0.63231,0 -0.953628,-0.268343 -1.101341,-0.417812 0.714471,-0.308197 0.859391,-0.748899 0.922681,-0.941389 0.006,-0.01869 0.0118,-0.03497 0.0174,-0.04895 0.0273,-0.01363 0.11398,-0.05245 0.38146,-0.15261 0.20978,-0.07553 0.46135,-0.160127 0.68318,-0.234942 0.18479,-0.06225 0.34439,-0.116254 0.43163,-0.148267 l 0.007,-0.0023 c 0.0174,-0.0049 0.028,-0.0071 0.035,-0.0084 l 0.005,0.0063 c 0.0812,0.105955 0.21537,0.170446 0.21661,0.171321 0.10076,0.04501 0.2086,0.07223 0.31868,0.08041 -0.003,0.381972 -0.17709,0.778123 -0.48406,1.095771 z m 0.71902,-0.3395 c -0.0278,-0.02448 -0.0699,-0.06345 -0.11345,-0.103146 0.04,-0.101772 0.0702,-0.207158 0.0902,-0.31467 0.0207,-0.11344 0.0336,-0.262226 0.0396,-0.341057 0.1256,-0.01879 0.24996,-0.04524 0.37236,-0.07918 0.14737,-0.04231 0.26116,-0.09039 0.34228,-0.145098 -0.25296,0.631608 -0.61937,0.909048 -0.73092,0.982799 z m 0.87531,-1.444508 c -0.0376,-0.311338 -0.16361,-0.69629 -0.21292,-0.845949 -0.005,-0.01748 -0.009,-0.03004 -0.0126,-0.03933 -0.004,-0.01188 -0.015,-0.04351 -0.0385,-0.108196 -0.0607,-0.169408 -0.18722,-0.521474 -0.20978,-0.62568 -0.0323,-0.15313 0.0408,-0.363783 0.0874,-0.382139 0.0144,-0.0054 0.0297,-0.0082 0.0451,-0.0083 0.086,0 0.1923,0.08129 0.2764,0.212402 0.10179,0.157336 0.16206,0.365886 0.16993,0.585473 0.0174,0.479163 -0.0269,0.879493 -0.10489,1.211645"
         fill="#ffffff"
         id="path5"
         style="fill:#e6e6e6;stroke-width:0.253451"
         sodipodi:nodetypes="ccsccccccccccccscccccccsccccccccscccccccccccccccscccscsccccccccccccccccccccccccccccccccssscsccccccccccccccccsccccccccsccccccccccccccccccccccccccccccc" /></g></g></svg>
